<svg xmlns="http://www.w3.org/2000/svg" viewBox="0 0 192 192" role="img" aria-labelledby="title">
  <title id="title">HealthTrack logo</title>
  <defs>
    <linearGradient id="g" x1="24" y1="18" x2="166" y2="174" gradientUnits="userSpaceOnUse">
      <stop stop-color="#35E4D7"/>
      <stop offset="1" stop-color="#10BED2"/>
    </linearGradient>
  </defs>
  <rect x="2" y="2" width="188" height="188" rx="46" fill="url(#g)"/>
  <circle cx="96" cy="96" r="76" fill="none" stroke="#fff" stroke-width="2.4" opacity=".96"/>
  <circle cx="42" cy="38" r="5.5" fill="#fff"/>
  <circle cx="52" cy="27" r="3.8" fill="#fff"/>
  <circle cx="151" cy="143" r="6.2" fill="#fff"/>
  <circle cx="160" cy="154" r="3.8" fill="#fff"/>
  <path d="M96 147C78 130 52 111 43 91c-10-23 4-48 28-48 11 0 20 5 25 14 6-9 15-14 26-14 24 0 38 25 28 48-9 20-35 39-54 56Z" fill="#fff"/>
  <path d="M119 45c12 2 24 8 31 18 5 7 8 16 7 26-8-10-18-17-30-21-11-4-21-4-31-1 6-11 13-18 23-22Z" fill="#fff"/>
  <g fill="url(#g)">
    <rect x="83" y="69" width="26" height="58" rx="9"/>
    <rect x="67" y="85" width="58" height="26" rx="9"/>
  </g>
  <path d="M88 86c11 1 20 8 27 19" fill="none" stroke="#fff" stroke-width="5.5" stroke-linecap="round"/>
</svg>